<svg width="10" height="10" viewBox="0 0 10 10" fill="none" xmlns="http://www.w3.org/2000/svg">
<path fill-rule="evenodd" clip-rule="evenodd" d="M8.72741 7.22366C8.7918 7.28178 8.85619 7.33989 8.92117 7.39726C8.98491 7.45336 9.01897 7.5218 8.98898 7.60446C8.95523 7.69337 8.87742 7.71102 8.79149 7.71102C8.55145 7.71088 8.31142 7.71092 8.07138 7.71096C7.49896 7.71105 6.92654 7.71115 6.35412 7.70883C6.27412 7.70852 6.2474 7.73352 6.22912 7.80852C6.14944 8.13588 6.00788 8.43292 5.76508 8.67183C5.3023 9.12669 4.6728 9.10653 4.23657 8.62495C4.02002 8.38745 3.88753 8.10713 3.81472 7.79681C3.79878 7.72884 3.77269 7.71321 3.70644 7.71321C3.29063 7.71675 2.8744 7.71852 2.45776 7.71852H1.2522C1.24071 7.71852 1.22923 7.71747 1.21775 7.71641C1.20626 7.71536 1.19478 7.7143 1.18329 7.7143C1.10517 7.71258 1.03877 7.68024 1.01143 7.60493C0.984086 7.52961 1.00721 7.46336 1.0658 7.40976C1.28214 7.21184 1.49885 7.01428 1.71592 6.81709C1.88998 6.6588 2.0295 6.47927 2.06184 6.23692C2.07239 6.15118 2.07761 6.06486 2.07747 5.97847C2.07886 5.79825 2.07879 5.61798 2.07871 5.4377V5.43769C2.07856 5.07294 2.07841 4.70816 2.09043 4.34374C2.11137 3.71153 2.33558 3.14652 2.71837 2.6465C3.08647 2.16571 3.56504 1.84242 4.13283 1.64476C4.16902 1.62849 4.19717 1.59837 4.21095 1.56116C4.32703 1.20771 4.60936 1.00255 4.99216 1.00005C5.36964 0.99755 5.66212 1.20318 5.77383 1.55897C5.79649 1.63038 5.8332 1.65944 5.90258 1.68398C6.84159 2.01492 7.46562 2.66197 7.78513 3.60591C7.89044 3.91685 7.92919 4.23952 7.92794 4.56765C7.927 4.76427 7.92758 4.9609 7.92816 5.15754V5.15754V5.15755C7.92904 5.4541 7.92992 5.75064 7.92559 6.04707C7.92122 6.37942 8.04074 6.64084 8.29917 6.85037C8.44609 6.96977 8.58677 7.09673 8.72741 7.22366ZM5.42277 1.56255C5.33262 1.4063 5.19965 1.33692 5.02248 1.33317C4.83686 1.32911 4.6814 1.37505 4.57031 1.56255H5.42277ZM5.23758 8.62308C5.00665 8.71995 4.79104 8.66386 4.60042 8.51604C4.36481 8.33338 4.23138 8.07853 4.14873 7.79727C4.14798 7.78681 4.14867 7.7763 4.15076 7.76602H5.89582C5.77567 8.14088 5.61271 8.46557 5.23758 8.62308ZM1.63853 7.32426C1.61932 7.34032 1.59922 7.35712 1.57812 7.37523H8.41511C8.37194 7.33806 8.3296 7.303 8.28844 7.26891C8.20849 7.20271 8.13299 7.14018 8.0645 7.07303C7.96076 6.97131 7.85686 6.86521 7.77327 6.74646C7.6303 6.54317 7.60234 6.30348 7.60234 6.06144C7.60184 5.88044 7.60223 5.69927 7.60262 5.51804C7.60333 5.19173 7.60405 4.86519 7.59953 4.5389C7.59703 4.35545 7.58453 4.16857 7.54656 3.98966C7.2497 2.58603 6.01648 1.65632 4.45985 1.91664C3.83191 2.02195 3.33819 2.37102 2.95696 2.87604C2.61495 3.32918 2.42605 3.84341 2.41542 4.41436C2.40828 4.79903 2.40853 5.18387 2.40878 5.56869C2.40886 5.70581 2.40895 5.84293 2.40871 5.98003C2.40824 6.24942 2.38074 6.51724 2.21356 6.73599C2.11742 6.86183 2.00392 6.97399 1.89032 7.08624C1.84848 7.12759 1.80662 7.16894 1.76562 7.21101C1.72744 7.24996 1.68564 7.28489 1.63853 7.32426Z" fill="white"/>
<path d="M8.92117 7.39726L8.75569 7.58466L8.75601 7.58494L8.92117 7.39726ZM8.72741 7.22366L8.55991 7.40925L8.55991 7.40925L8.72741 7.22366ZM8.98898 7.60446L9.22273 7.69319L9.22398 7.68974L8.98898 7.60446ZM8.79149 7.71102L8.79134 7.96102H8.79149V7.71102ZM8.07138 7.71096L8.07142 7.96096L8.07138 7.71096ZM6.35412 7.70883L6.35512 7.45884H6.35509L6.35412 7.70883ZM6.22912 7.80852L5.98623 7.74932L5.98621 7.7494L6.22912 7.80852ZM5.76508 8.67183L5.94033 8.85013L5.94043 8.85003L5.76508 8.67183ZM4.23657 8.62495L4.42186 8.45712L4.42131 8.45652L4.23657 8.62495ZM3.81472 7.79681L3.57132 7.85387L3.57133 7.85391L3.81472 7.79681ZM3.70644 7.71321V7.4632L3.70431 7.46322L3.70644 7.71321ZM1.21775 7.71641L1.24061 7.46746H1.24061L1.21775 7.71641ZM1.18329 7.7143L1.17779 7.9643H1.18329V7.7143ZM1.01143 7.60493L0.776435 7.69024L1.01143 7.60493ZM1.0658 7.40976L1.23454 7.59423L1.23455 7.59422L1.0658 7.40976ZM1.71592 6.81709L1.88402 7.00214L1.88412 7.00205L1.71592 6.81709ZM2.06184 6.23692L2.30966 6.26999L2.30997 6.26746L2.06184 6.23692ZM2.07747 5.97847L1.82746 5.97654L1.82747 5.9789L2.07747 5.97847ZM2.07871 5.4377H1.82871V5.4378L2.07871 5.4377ZM2.07871 5.43769H2.32871V5.43758L2.07871 5.43769ZM2.09043 4.34374L1.84057 4.33546L1.84057 4.33549L2.09043 4.34374ZM2.71837 2.6465L2.51987 2.49453L2.51986 2.49453L2.71837 2.6465ZM4.13283 1.64476L4.21502 1.88086L4.22533 1.87727L4.23528 1.8728L4.13283 1.64476ZM4.21095 1.56116L4.44556 1.64802L4.44846 1.63917L4.21095 1.56116ZM4.99216 1.00005L4.99379 1.25004L4.99381 1.25004L4.99216 1.00005ZM5.77383 1.55897L5.53531 1.63386L5.53554 1.63457L5.77383 1.55897ZM5.90258 1.68398L5.81923 1.91967L5.81948 1.91976L5.90258 1.68398ZM7.78513 3.60591L7.54833 3.68606L7.54834 3.6861L7.78513 3.60591ZM7.92794 4.56765L8.17794 4.56884L8.17794 4.5686L7.92794 4.56765ZM7.92816 5.15754H8.17817L8.17816 5.1568L7.92816 5.15754ZM7.92816 5.15755H7.67816L7.67817 5.15829L7.92816 5.15755ZM7.92559 6.04707L7.67562 6.04342L7.67562 6.04378L7.92559 6.04707ZM8.29917 6.85037L8.45683 6.65635L8.45662 6.65619L8.29917 6.85037ZM5.02248 1.33317L5.01701 1.58311L5.01719 1.58312L5.02248 1.33317ZM5.42277 1.56255V1.81255H5.85563L5.63931 1.43762L5.42277 1.56255ZM4.57031 1.56255L4.35523 1.43513L4.13162 1.81255H4.57031V1.56255ZM4.60042 8.51604L4.75363 8.31848L4.7536 8.31846L4.60042 8.51604ZM5.23758 8.62308L5.33429 8.85361L5.33436 8.85358L5.23758 8.62308ZM4.14873 7.79727L3.89936 7.81503L3.90128 7.84191L3.90887 7.86776L4.14873 7.79727ZM4.15076 7.76602V7.51602H3.94654L3.90579 7.71613L4.15076 7.76602ZM5.89582 7.76602L6.13389 7.84233L6.23848 7.51602H5.89582V7.76602ZM1.57812 7.37523L1.41529 7.18553L0.903076 7.62523H1.57812V7.37523ZM1.63853 7.32426L1.79885 7.51609L1.79885 7.51609L1.63853 7.32426ZM8.41511 7.37523V7.62523H9.08857L8.57824 7.18578L8.41511 7.37523ZM8.28844 7.26891L8.12899 7.46146L8.12899 7.46146L8.28844 7.26891ZM8.0645 7.07303L8.23953 6.89452L8.23953 6.89452L8.0645 7.07303ZM7.77327 6.74646L7.56877 6.89027L7.56883 6.89036L7.77327 6.74646ZM7.60234 6.06144H7.85234L7.85234 6.06075L7.60234 6.06144ZM7.60262 5.51804L7.35262 5.51749V5.51749L7.60262 5.51804ZM7.59953 4.5389L7.34955 4.5423L7.34955 4.54236L7.59953 4.5389ZM7.54656 3.98966L7.30197 4.04139L7.30201 4.04156L7.54656 3.98966ZM4.45985 1.91664L4.41861 1.67006L4.4185 1.67008L4.45985 1.91664ZM2.95696 2.87604L2.75743 2.72541L2.75742 2.72543L2.95696 2.87604ZM2.41542 4.41436L2.16547 4.40971L2.16547 4.40972L2.41542 4.41436ZM2.40878 5.56869L2.65878 5.56853V5.56853L2.40878 5.56869ZM2.40871 5.98003L2.15871 5.97958V5.9796L2.40871 5.98003ZM2.21356 6.73599L2.01492 6.58419L2.0149 6.58422L2.21356 6.73599ZM1.89032 7.08624L2.06604 7.26407H2.06604L1.89032 7.08624ZM1.76562 7.21101L1.94417 7.38599L1.94462 7.38552L1.76562 7.21101ZM9.08664 7.20986C9.02285 7.15354 8.95947 7.09634 8.89491 7.03807L8.55991 7.40925C8.62414 7.46722 8.68953 7.52624 8.75569 7.58466L9.08664 7.20986ZM9.22398 7.68974C9.2586 7.59435 9.2585 7.49563 9.22472 7.40423C9.19306 7.31857 9.13772 7.25481 9.08632 7.20958L8.75601 7.58494C8.76836 7.59581 8.76192 7.59431 8.75573 7.57757C8.75235 7.56841 8.74998 7.55705 8.75 7.54471C8.75002 7.53247 8.75238 7.52357 8.75397 7.51917L9.22398 7.68974ZM8.79149 7.96102C8.84654 7.96102 8.92982 7.95632 9.01262 7.91896C9.10658 7.87656 9.18203 7.80033 9.2227 7.69318L8.75525 7.51574C8.7574 7.51006 8.76295 7.49887 8.77428 7.48688C8.78561 7.4749 8.79776 7.46736 8.80698 7.4632C8.81531 7.45945 8.81944 7.45923 8.81605 7.45975C8.81257 7.46028 8.80501 7.46102 8.79149 7.46102V7.96102ZM8.07142 7.96096C8.31147 7.96092 8.55141 7.96088 8.79134 7.96102L8.79163 7.46102C8.55149 7.46088 8.31136 7.46092 8.07134 7.46096L8.07142 7.96096ZM6.35311 7.95883C6.92614 7.96115 7.49909 7.96105 8.07142 7.96096L8.07134 7.46096C7.49883 7.46105 6.92693 7.46115 6.35512 7.45884L6.35311 7.95883ZM6.47201 7.86773C6.47442 7.85786 6.47436 7.86159 6.46953 7.87142C6.46381 7.88308 6.45108 7.90396 6.42721 7.92357C6.37773 7.96424 6.33127 7.95875 6.35314 7.95883L6.35509 7.45884C6.29696 7.45861 6.19715 7.46546 6.10974 7.5373C6.02506 7.60689 5.99813 7.7005 5.98623 7.74932L6.47201 7.86773ZM5.94043 8.85003C6.22452 8.57048 6.3844 8.22766 6.47203 7.86765L5.98621 7.7494C5.91448 8.04409 5.79124 8.29536 5.58974 8.49363L5.94043 8.85003ZM4.05128 8.79279C4.30933 9.07767 4.63753 9.2387 4.9831 9.24943C5.32882 9.26017 5.66608 9.11967 5.94033 8.85013L5.58984 8.49353C5.4013 8.67885 5.19241 8.75569 4.99863 8.74968C4.8047 8.74365 4.60003 8.65382 4.42186 8.45712L4.05128 8.79279ZM3.57133 7.85391C3.65214 8.19836 3.80185 8.51922 4.05183 8.79339L4.42131 8.45652C4.23819 8.25567 4.12291 8.01589 4.05811 7.7397L3.57133 7.85391ZM3.70644 7.96321C3.71501 7.96321 3.70967 7.9639 3.6976 7.96136C3.6835 7.95839 3.65796 7.95058 3.63094 7.93063C3.57462 7.88904 3.56731 7.8368 3.57132 7.85387L4.05812 7.73974C4.04618 7.68884 4.01786 7.5948 3.92795 7.52841C3.84222 7.4651 3.74774 7.46321 3.70644 7.46321V7.96321ZM2.45776 7.96852C2.87511 7.96852 3.29205 7.96675 3.70857 7.9632L3.70431 7.46322C3.28921 7.46675 2.87369 7.46852 2.45776 7.46852V7.96852ZM1.2522 7.96852H2.45776V7.46852H1.2522V7.96852ZM1.19488 7.96536C1.20441 7.96624 1.22733 7.96852 1.2522 7.96852V7.46852C1.25395 7.46852 1.25426 7.4686 1.25215 7.46845C1.24973 7.46829 1.24683 7.46803 1.24061 7.46746L1.19488 7.96536ZM1.18329 7.9643C1.18154 7.9643 1.18123 7.96423 1.18334 7.96437C1.18576 7.96454 1.18866 7.96479 1.19488 7.96536L1.24061 7.46746C1.23108 7.46659 1.20816 7.4643 1.18329 7.4643V7.9643ZM0.776435 7.69024C0.85004 7.89298 1.03326 7.96106 1.17779 7.96424L1.18879 7.46436C1.1811 7.46419 1.18991 7.46271 1.20612 7.47235C1.21462 7.47741 1.22359 7.48468 1.23147 7.4942C1.23936 7.50374 1.24399 7.51292 1.24642 7.51961L0.776435 7.69024ZM0.897063 7.2253C0.842423 7.27528 0.792117 7.34241 0.7667 7.42814C0.740527 7.51643 0.746114 7.60672 0.776435 7.69024L1.24642 7.51961C1.24752 7.52264 1.24949 7.52947 1.24992 7.53941C1.25035 7.54953 1.24907 7.56017 1.24608 7.57026C1.24004 7.59064 1.23059 7.59784 1.23454 7.59423L0.897063 7.2253ZM1.54782 6.63204C1.33053 6.82943 1.11361 7.02719 0.897051 7.22531L1.23455 7.59422C1.45068 7.39649 1.66717 7.19913 1.88402 7.00214L1.54782 6.63204ZM1.81404 6.20385C1.79305 6.36116 1.70332 6.49063 1.54772 6.63213L1.88412 7.00205C2.07663 6.82698 2.26595 6.59738 2.30964 6.26999L1.81404 6.20385ZM1.82747 5.9789C1.8276 6.05494 1.823 6.13091 1.81371 6.20638L2.30997 6.26746C2.32179 6.17144 2.32763 6.07479 2.32747 5.97805L1.82747 5.9789ZM1.82871 5.4378C1.82879 5.61825 1.82886 5.7975 1.82747 5.97654L2.32746 5.98041C2.32886 5.799 2.32879 5.6177 2.32871 5.43759L1.82871 5.4378ZM1.82871 5.43769V5.4377H2.32871V5.43769H1.82871ZM1.84057 4.33549C1.82838 4.70479 1.82856 5.07374 1.82871 5.43779L2.32871 5.43758C2.32856 5.07213 2.32843 4.71154 2.3403 4.35198L1.84057 4.33549ZM2.51986 2.49453C2.10911 3.03107 1.86342 3.64539 1.84057 4.33546L2.3403 4.35201C2.35932 3.77768 2.56205 3.26196 2.91688 2.79847L2.51986 2.49453ZM4.05063 1.40865C3.44191 1.62057 2.92088 1.97075 2.51987 2.49453L2.91687 2.79848C3.25207 2.36066 3.68817 2.06427 4.21502 1.88086L4.05063 1.40865ZM3.9765 1.47436C3.986 1.4487 4.00541 1.42793 4.03037 1.41671L4.23528 1.8728C4.33264 1.82906 4.40834 1.74805 4.44539 1.64796L3.9765 1.47436ZM4.99052 0.750055C4.50265 0.753242 4.12375 1.02546 3.97343 1.48315L4.44846 1.63917C4.53031 1.38996 4.71608 1.25186 4.99379 1.25004L4.99052 0.750055ZM6.01235 1.48408C5.86633 1.01903 5.47305 0.746859 4.9905 0.750055L4.99381 1.25004C5.26622 1.24824 5.45791 1.38733 5.53531 1.63386L6.01235 1.48408ZM5.98593 1.44828C5.96507 1.4409 5.97545 1.44157 5.99105 1.45609C5.99923 1.4637 6.00538 1.47185 6.0094 1.47871C6.01303 1.4849 6.01344 1.48751 6.01213 1.48337L5.53554 1.63457C5.55615 1.69953 5.59017 1.76601 5.65032 1.82202C5.70728 1.87506 5.77071 1.90251 5.81923 1.91967L5.98593 1.44828ZM8.02193 3.52575C7.67853 2.51123 6.99921 1.8054 5.98568 1.44819L5.81948 1.91976C6.68397 2.22444 7.25271 2.81271 7.54833 3.68606L8.02193 3.52575ZM8.17794 4.5686C8.17926 4.2204 8.13821 3.86908 8.02192 3.52571L7.54834 3.6861C7.64267 3.96463 7.67911 4.25863 7.67794 4.5667L8.17794 4.5686ZM8.17816 5.1568C8.17758 4.96001 8.17701 4.76433 8.17794 4.56884L7.67794 4.56646C7.677 4.7642 7.67759 4.9618 7.67817 5.15828L8.17816 5.1568ZM8.17816 5.15754V5.15754H7.67816V5.15754H8.17816ZM8.17816 5.15755V5.15754H7.67816V5.15755H8.17816ZM8.17557 6.05071C8.17993 5.75173 8.17904 5.453 8.17816 5.15681L7.67817 5.15829C7.67904 5.45521 7.67991 5.74955 7.67562 6.04342L8.17557 6.05071ZM8.45662 6.65619C8.25891 6.49588 8.17218 6.30785 8.17557 6.05036L7.67562 6.04378C7.67026 6.45099 7.82258 6.78579 8.14172 7.04456L8.45662 6.65619ZM8.89491 7.03807C8.75508 6.91187 8.60962 6.78052 8.45683 6.65635L8.14151 7.04439C8.28257 7.15902 8.41847 7.2816 8.55991 7.40925L8.89491 7.03807ZM5.01719 1.58312C5.07433 1.58433 5.10967 1.59567 5.13306 1.60878C5.15538 1.62128 5.18054 1.64298 5.20622 1.68749L5.63931 1.43762C5.57484 1.32588 5.48844 1.23476 5.37745 1.17257C5.26753 1.11099 5.1478 1.08577 5.02777 1.08323L5.01719 1.58312ZM4.7854 1.68998C4.81768 1.6355 4.84726 1.61478 4.87163 1.60374C4.90064 1.5906 4.94436 1.58152 5.01701 1.58311L5.02795 1.08323C4.91498 1.08076 4.78816 1.09263 4.66527 1.14831C4.53773 1.2061 4.43404 1.3021 4.35523 1.43513L4.7854 1.68998ZM5.42277 1.31255H4.57031V1.81255H5.42277V1.31255ZM4.44722 8.7136C4.6906 8.90233 5.00066 8.99358 5.33429 8.85361L5.14086 8.39254C5.01264 8.44633 4.89148 8.42539 4.75363 8.31848L4.44722 8.7136ZM3.90887 7.86776C4.00017 8.17843 4.15562 8.48753 4.44725 8.71362L4.7536 8.31846C4.574 8.17923 4.46259 7.97863 4.38859 7.72679L3.90887 7.86776ZM3.90579 7.71613C3.89917 7.74865 3.897 7.78193 3.89936 7.81503L4.3981 7.77951C4.39897 7.7917 4.39817 7.80394 4.39573 7.81591L3.90579 7.71613ZM5.89582 7.51602H4.15076V8.01602H5.89582V7.51602ZM5.33436 8.85358C5.81558 8.65154 6.00865 8.23307 6.13389 7.84233L5.65775 7.68971C5.5427 8.04868 5.40985 8.27961 5.1408 8.39257L5.33436 8.85358ZM1.74096 7.56492C1.76062 7.54805 1.7795 7.53227 1.79885 7.51609L1.47822 7.13243C1.45914 7.14838 1.43782 7.16619 1.41529 7.18553L1.74096 7.56492ZM8.41511 7.12523H1.57812V7.62523H8.41511V7.12523ZM8.12899 7.46146C8.1704 7.49575 8.21092 7.52932 8.25198 7.56467L8.57824 7.18578C8.53296 7.1468 8.4888 7.11024 8.44789 7.07636L8.12899 7.46146ZM7.88947 7.25154C7.96678 7.32734 8.05064 7.39658 8.12899 7.46146L8.44789 7.07636C8.36634 7.00883 8.2992 6.95303 8.23953 6.89452L7.88947 7.25154ZM7.56883 6.89036C7.6667 7.02939 7.78513 7.14923 7.88947 7.25154L8.23953 6.89452C8.13638 6.79339 8.04702 6.70104 7.9777 6.60256L7.56883 6.89036ZM7.35234 6.06144C7.35234 6.317 7.38004 6.62191 7.56877 6.89027L7.97776 6.60265C7.88057 6.46444 7.85234 6.28996 7.85234 6.06144H7.35234ZM7.35262 5.51749C7.35223 5.69863 7.35183 5.88041 7.35234 6.06213L7.85234 6.06075C7.85184 5.88047 7.85223 5.69992 7.85262 5.51858L7.35262 5.51749ZM7.34955 4.54236C7.35404 4.86631 7.35334 5.19085 7.35262 5.51749L7.85262 5.51858C7.85333 5.19261 7.85405 4.86406 7.8495 4.53543L7.34955 4.54236ZM7.30201 4.04156C7.33519 4.19796 7.34716 4.3667 7.34955 4.5423L7.8495 4.53549C7.8469 4.34421 7.83386 4.13919 7.79111 3.93777L7.30201 4.04156ZM4.50108 2.16321C5.92152 1.92567 7.03195 2.76466 7.30197 4.04139L7.79115 3.93793C7.46745 2.4074 6.11145 1.38696 4.41861 1.67006L4.50108 2.16321ZM3.15649 3.02666C3.50708 2.56223 3.94814 2.25595 4.5012 2.16319L4.4185 1.67008C3.71568 1.78795 3.16929 2.17982 2.75743 2.72541L3.15649 3.02666ZM2.66538 4.41901C2.67496 3.90403 2.84428 3.44031 3.1565 3.02665L2.75742 2.72543C2.38561 3.21804 2.17713 3.78279 2.16547 4.40971L2.66538 4.41901ZM2.65878 5.56853C2.65853 5.18331 2.65829 4.80087 2.66538 4.419L2.16547 4.40972C2.15827 4.79719 2.15853 5.18443 2.15878 5.56885L2.65878 5.56853ZM2.65871 5.98048C2.65895 5.84302 2.65886 5.7056 2.65878 5.56853L2.15878 5.56885C2.15886 5.70602 2.15895 5.84283 2.15871 5.97958L2.65871 5.98048ZM2.4122 6.88779C2.63265 6.59933 2.65822 6.25825 2.65871 5.98047L2.15871 5.9796C2.15825 6.24058 2.12883 6.43514 2.01492 6.58419L2.4122 6.88779ZM2.06604 7.26407C2.17747 7.15395 2.30373 7.02977 2.41222 6.88777L2.0149 6.58422C1.9311 6.6939 1.83036 6.79402 1.7146 6.90841L2.06604 7.26407ZM1.94462 7.38552C1.98373 7.34541 2.02392 7.30569 2.06604 7.26407L1.7146 6.90841C1.67303 6.94948 1.62951 6.99248 1.58661 7.03649L1.94462 7.38552ZM1.79885 7.51609C1.84407 7.4783 1.89576 7.43538 1.94417 7.38598L1.58706 7.03603C1.55912 7.06454 1.52721 7.09149 1.47822 7.13243L1.79885 7.51609Z" fill="white"/>
</svg>
