<?xml version="1.0" encoding="utf-8"?>
<!-- Generator: Adobe Illustrator 24.3.0, SVG Export Plug-In . SVG Version: 6.00 Build 0)  -->
<svg version="1.1" id="Calque_1" xmlns="http://www.w3.org/2000/svg" xmlns:xlink="http://www.w3.org/1999/xlink" x="0px" y="0px"
	 viewBox="0 0 717.8 726.4" style="enable-background:new 0 0 717.8 726.4;" xml:space="preserve">
<style type="text/css">
	.st0{clip-path:url(#SVGID_2_);}
</style>
<g>
	<g>
		<defs>
			<rect id="SVGID_1_" x="168.6" y="194.6" width="380.5" height="337.3"/>
		</defs>
		<clipPath id="SVGID_2_">
			<use xlink:href="#SVGID_1_"  style="overflow:visible;"/>
		</clipPath>
		<g class="st0">
			<path d="M526.1,326.3c-0.1,0.5-0.1,1-0.2,1.5c0,0,0,0,0,0C525.9,327.3,526,326.8,526.1,326.3z M548.6,327c0-0.2,0-0.4,0-0.7
				c0.7-5,0.7-10,0.3-15.1c-1.7-19.1-6.4-38.2-14.4-55.6c-7.5-16.2-19.2-30-33.4-40.6c-14.9-11.2-33.3-17.6-51.8-19.2
				c-10-0.9-20.1,0-30,1.5c-8.3,1.2-16.4,3.2-24.2,6.3c-10.4,4-19.7,9.3-28.4,16.2c-3.9,3.1-7.5,6.5-10.8,10.2
				c-8.8-10.2-19.6-18.5-31.8-24.2c-8.9-4.2-18.1-7.2-27.8-8.8c-10.1-1.7-20.7-3-31-2c-9.6,0.9-19,3-27.9,6.6
				c-4.8,2-9.5,4.1-13.9,6.8c-4.3,2.6-8.4,5.6-12.3,8.8c-14.8,11.9-25.3,28-32,45.6c-3.7,9.5-6.2,19.6-8.1,29.6
				c-2,10.8-3.4,21.8-2.3,32.7c0,0.2,0,0.4,0,0.6c0.1,0.4,0.1,0.8,0.2,1.2c-0.1,4.4,0.7,8.8,1.4,13.2c0.8,4.5,1.8,8.9,3.1,13.3
				c2.8,9.2,6.6,18.2,10.9,26.8c8,16.3,18.6,31.2,30.1,45.1c23.5,28.2,52,52,81.8,73c7.5,5.3,15.2,10.5,23,15.5
				c7.8,5.1,15.7,10.2,24,14.6c6,3.2,12.7,4.7,19.3,2.5c5.2-1.8,9.8-4.8,14.5-7.6c8.1-4.7,16.2-9.6,24.1-14.6
				c31.1-19.8,61.1-42.2,86.9-68.7c12.8-13.1,24.5-27.3,34.5-42.6c4.9-7.4,9.2-15.1,13-23.2c4.2-9.1,7.9-18.5,10.2-28.2
				c1.1-4.6,1.7-9.3,2.2-14.1C548.5,330.2,548.7,328.6,548.6,327"/>
		</g>
	</g>
</g>
</svg>
