<svg xmlns="http://www.w3.org/2000/svg" xmlns:xlink="http://www.w3.org/1999/xlink" viewBox="0 0 934 746.94"><defs><style>.cls-1{fill:none;}.cls-2{clip-path:url(#clip-path);}.cls-3{clip-path:url(#clip-path-2);}.cls-4{clip-path:url(#clip-path-3);}</style><clipPath id="clip-path" transform="translate(0 -0.03)"><rect class="cls-1" width="934" height="250.22"/></clipPath><clipPath id="clip-path-2" transform="translate(0 -0.03)"><rect class="cls-1" y="496.89" width="934" height="250.11"/></clipPath><clipPath id="clip-path-3" transform="translate(0 -0.03)"><rect class="cls-1" y="248.89" width="934" height="249.33"/></clipPath></defs><g id="Calque_2" data-name="Calque 2"><g id="Calque_1-2" data-name="Calque 1"><g class="cls-2"><path d="M902.86,93.38H338.05c-.85-3.31-1.82-6.58-2.94-9.81s-2.35-6.4-3.72-9.52-2.88-6.19-4.51-9.19-3.37-5.93-5.25-8.79-3.85-5.63-5.95-8.32-4.31-5.29-6.62-7.8-4.73-4.92-7.24-7.23-5.12-4.51-7.82-6.61-5.47-4.07-8.33-5.94-5.79-3.61-8.79-5.23-6.07-3.12-9.2-4.49-6.3-2.61-9.54-3.72-6.49-2.08-9.81-2.92-6.65-1.53-10-2.09-6.76-1-10.16-1.27S221.35,0,217.93,0s-6.82.14-10.22.42-6.79.71-10.16,1.27-6.71,1.26-10,2.09S181,5.63,177.72,6.73s-6.4,2.35-9.53,3.72S162,13.31,159,14.94s-5.93,3.37-8.79,5.23-5.64,3.85-8.33,5.94-5.3,4.3-7.82,6.61-4.92,4.72-7.24,7.23-4.52,5.11-6.62,7.8-4.09,5.47-6,8.32-3.61,5.79-5.24,8.79-3.13,6.06-4.51,9.19-2.62,6.29-3.72,9.52-2.09,6.5-2.94,9.81H31.14c-1,0-2,.05-3.06.15s-2,.25-3,.44-2,.45-3,.74-1.94.64-2.88,1-1.86.83-2.76,1.31-1.77,1-2.62,1.57a29.32,29.32,0,0,0-2.45,1.82c-.79.65-1.55,1.33-2.27,2a32,32,0,0,0-3.87,4.72,30.24,30.24,0,0,0-1.57,2.62c-.48.9-.92,1.82-1.31,2.76s-.73,1.9-1,2.87-.54,2-.74,3-.35,2-.45,3-.15,2-.15,3,.05,2,.15,3a30.53,30.53,0,0,0,.45,3c.2,1,.45,2,.74,3s.64,1.93,1,2.87a31.6,31.6,0,0,0,2.88,5.38,29.32,29.32,0,0,0,1.82,2.45,27.62,27.62,0,0,0,2,2.27c.72.72,1.48,1.4,2.27,2.05a29.32,29.32,0,0,0,2.45,1.82A30.24,30.24,0,0,0,16.46,152c.9.48,1.82.91,2.76,1.31s1.9.73,2.88,1,2,.54,3,.74a28.17,28.17,0,0,0,3,.44,28.38,28.38,0,0,0,3.06.16H97.82c.85,3.3,1.82,6.57,2.94,9.8s2.35,6.4,3.72,9.53,2.88,6.19,4.51,9.19,3.37,5.92,5.24,8.78,3.86,5.63,6,8.32,4.3,5.29,6.62,7.8,4.73,4.92,7.24,7.23,5.12,4.52,7.82,6.61,5.47,4.07,8.33,5.94,5.79,3.61,8.79,5.23,6.07,3.12,9.2,4.49,6.3,2.61,9.53,3.72,6.5,2.08,9.82,2.92,6.65,1.53,10,2.1,6.76,1,10.16,1.26,6.81.42,10.22.42,6.83-.14,10.23-.42,6.79-.71,10.16-1.26,6.7-1.26,10-2.1,6.58-1.81,9.81-2.92,6.41-2.35,9.54-3.72,6.19-2.86,9.2-4.49,5.93-3.36,8.79-5.23,5.64-3.85,8.33-5.94,5.3-4.3,7.82-6.61,4.92-4.72,7.24-7.23,4.52-5.11,6.62-7.8,4.08-5.46,5.95-8.32,3.62-5.78,5.25-8.78,3.13-6.07,4.51-9.19,2.61-6.3,3.72-9.53,2.09-6.5,2.94-9.8H902.86a33.09,33.09,0,0,0,6.08-.6c1-.2,2-.45,3-.74s1.94-.64,2.88-1,1.86-.83,2.76-1.31a30.24,30.24,0,0,0,2.62-1.57,32,32,0,0,0,4.72-3.87,27.62,27.62,0,0,0,2-2.27,29.32,29.32,0,0,0,1.82-2.45,31.6,31.6,0,0,0,2.88-5.38c.39-.94.73-1.9,1-2.87s.54-2,.74-3a30.53,30.53,0,0,0,.45-3c.1-1,.15-2,.15-3s0-2-.15-3-.25-2-.45-3-.45-2-.74-3-.64-1.93-1-2.87-.83-1.86-1.31-2.76a30.24,30.24,0,0,0-1.57-2.62,31.31,31.31,0,0,0-8.59-8.59c-.85-.56-1.72-1.09-2.62-1.57s-1.82-.91-2.76-1.31-1.9-.73-2.88-1-2-.54-3-.74-2-.34-3-.44S903.89,93.38,902.86,93.38ZM217.93,186.75c-2,0-4.07-.1-6.1-.3s-4-.5-6-.9a60.44,60.44,0,0,1-5.93-1.48q-2.93-.88-5.76-2.06t-5.52-2.61q-2.69-1.44-5.24-3.14c-1.69-1.13-3.33-2.35-4.91-3.64s-3.08-2.66-4.52-4.1A58.71,58.71,0,0,1,169.8,164q-1.94-2.36-3.64-4.91a62.23,62.23,0,0,1-5.75-10.76q-1.17-2.82-2.06-5.75t-1.49-5.92q-.59-3-.89-6.05t-.3-6.1q0-3.06.3-6.1t.89-6.05c.4-2,.9-4,1.49-5.92s1.28-3.87,2.06-5.75S162.06,97,163,95.16s2-3.55,3.14-5.24,2.35-3.34,3.64-4.91a60.62,60.62,0,0,1,4.11-4.53q2.16-2.16,4.52-4.1t4.91-3.64q2.55-1.69,5.24-3.14T194.1,67q2.84-1.17,5.76-2.06a60.44,60.44,0,0,1,5.93-1.48q3-.6,6-.9c2-.2,4.07-.3,6.1-.3s4.08.1,6.11.3,4,.5,6,.9A60.44,60.44,0,0,1,236,64.93q2.93.88,5.75,2.06t5.53,2.61Q250,71,252.53,72.74t4.91,3.64q2.35,1.94,4.52,4.1A60.62,60.62,0,0,1,266.07,85q1.94,2.35,3.64,4.91t3.14,5.24c1,1.79,1.83,3.64,2.61,5.52s1.47,3.8,2.06,5.75,1.08,3.93,1.49,5.92.69,4,.89,6.05.3,4.06.3,6.1-.1,4.07-.3,6.1-.5,4.05-.89,6.05-.9,4-1.49,5.92-1.28,3.87-2.06,5.75a62.23,62.23,0,0,1-5.75,10.76q-1.71,2.55-3.64,4.91a58.71,58.71,0,0,1-4.11,4.53q-2.16,2.16-4.52,4.1c-1.58,1.29-3.22,2.51-4.91,3.64s-3.45,2.18-5.24,3.14-3.64,1.83-5.53,2.61-3.8,1.47-5.75,2.06a60.44,60.44,0,0,1-5.93,1.48q-3,.6-6,.9T217.93,186.75Z" transform="translate(0 -0.03)"/></g><g class="cls-3"><path d="M902.86,591.38H493.71q-1.26-5-2.93-9.81t-3.73-9.52c-1.37-3.13-2.88-6.19-4.5-9.19s-3.38-5.93-5.25-8.79-3.86-5.63-6-8.32-4.3-5.29-6.62-7.8-4.73-4.92-7.24-7.23-5.12-4.51-7.81-6.61-5.48-4.07-8.34-5.94-5.78-3.61-8.79-5.23-6.07-3.12-9.2-4.49-6.3-2.61-9.53-3.72-6.5-2.08-9.81-2.92-6.65-1.53-10-2.09-6.75-1-10.15-1.27S377,498,373.6,498s-6.82.14-10.22.42-6.79.71-10.16,1.27-6.71,1.26-10,2.09-6.58,1.82-9.81,2.92-6.41,2.35-9.54,3.72-6.19,2.86-9.19,4.49-5.94,3.37-8.8,5.23-5.63,3.85-8.33,5.94-5.3,4.3-7.81,6.61-4.93,4.72-7.24,7.23-4.52,5.11-6.63,7.8-4.08,5.47-6,8.32-3.62,5.79-5.24,8.79-3.13,6.06-4.51,9.19-2.62,6.29-3.73,9.52-2.09,6.5-2.93,9.81H31.14c-1,0-2,0-3.06.15s-2,.25-3,.44-2,.45-3,.74-1.94.64-2.88,1-1.86.83-2.76,1.31-1.77,1-2.62,1.57a29.32,29.32,0,0,0-2.45,1.82c-.79.65-1.55,1.33-2.27,2a32,32,0,0,0-3.87,4.72,30.24,30.24,0,0,0-1.57,2.62c-.48.9-.92,1.82-1.31,2.76s-.73,1.9-1,2.87-.54,2-.74,3-.35,2-.45,3-.15,2-.15,3,.05,2,.15,3a30.53,30.53,0,0,0,.45,3c.2,1,.45,2,.74,3s.64,1.93,1,2.87a31.6,31.6,0,0,0,2.88,5.38,29.32,29.32,0,0,0,1.82,2.45,27.62,27.62,0,0,0,2,2.27c.72.72,1.48,1.4,2.27,2a29.32,29.32,0,0,0,2.45,1.82A30.24,30.24,0,0,0,16.46,650c.9.48,1.82.91,2.76,1.31s1.9.73,2.88,1,2,.54,3,.74,2,.35,3,.44a28.38,28.38,0,0,0,3.06.16H253.49q1.26,4.95,2.93,9.8t3.73,9.53q2.07,4.68,4.51,9.19t5.24,8.78q2.81,4.29,6,8.32c2.11,2.69,4.31,5.29,6.63,7.8s4.73,4.92,7.24,7.23,5.12,4.52,7.81,6.61,5.48,4.07,8.33,5.94,5.8,3.61,8.8,5.23,6.07,3.12,9.19,4.49,6.31,2.61,9.54,3.72,6.5,2.08,9.81,2.92,6.65,1.53,10,2.1,6.75,1,10.16,1.26,6.81.42,10.22.42,6.82-.14,10.23-.42,6.78-.71,10.15-1.26,6.71-1.26,10-2.1,6.58-1.81,9.81-2.92,6.41-2.35,9.53-3.72,6.2-2.86,9.2-4.49,5.93-3.36,8.79-5.23,5.64-3.85,8.34-5.94,5.3-4.3,7.81-6.61,4.93-4.72,7.24-7.23,4.52-5.11,6.62-7.8,4.09-5.46,6-8.32,3.62-5.78,5.25-8.78,3.13-6.07,4.5-9.19,2.62-6.3,3.73-9.53,2.09-6.5,2.93-9.8H902.86a28.38,28.38,0,0,0,3.06-.16c1-.09,2-.25,3-.44s2-.45,3-.74,1.94-.64,2.88-1,1.86-.83,2.76-1.31a30.24,30.24,0,0,0,2.62-1.57,32,32,0,0,0,4.72-3.87,27.62,27.62,0,0,0,2-2.27,29.32,29.32,0,0,0,1.82-2.45,31.6,31.6,0,0,0,2.88-5.38c.39-.94.73-1.9,1-2.87s.54-2,.74-3a30.53,30.53,0,0,0,.45-3c.1-1,.15-2,.15-3s0-2-.15-3-.25-2-.45-3-.45-2-.74-3-.64-1.93-1-2.87-.83-1.86-1.31-2.76a30.24,30.24,0,0,0-1.57-2.62,31.31,31.31,0,0,0-8.59-8.59c-.85-.56-1.72-1.09-2.62-1.57s-1.82-.91-2.76-1.31-1.9-.73-2.88-1-2-.54-3-.74-2-.34-3-.44S903.89,591.38,902.86,591.38ZM373.6,684.75q-3.06,0-6.1-.3t-6.05-.9a60.25,60.25,0,0,1-5.92-1.48c-2-.59-3.87-1.28-5.76-2.06s-3.72-1.65-5.52-2.61-3.55-2-5.24-3.14-3.33-2.35-4.91-3.64-3.08-2.66-4.53-4.1a60.69,60.69,0,0,1-4.1-4.53,58.23,58.23,0,0,1-3.64-4.91,59,59,0,0,1-3.14-5.24,58.05,58.05,0,0,1-2.62-5.52q-1.17-2.82-2.05-5.75a60.3,60.3,0,0,1-1.49-5.92,62.77,62.77,0,0,1,0-24.3,60.3,60.3,0,0,1,1.49-5.92q.89-2.92,2.05-5.75a63.2,63.2,0,0,1,5.76-10.76,58.23,58.23,0,0,1,3.64-4.91c1.29-1.58,2.66-3.08,4.1-4.53s2.95-2.81,4.53-4.1,3.21-2.5,4.91-3.64,3.44-2.18,5.24-3.14,3.64-1.83,5.52-2.61,3.8-1.47,5.76-2.06a60.25,60.25,0,0,1,5.92-1.48q3-.6,6.05-.9t6.1-.3q3.06,0,6.1.3t6.05.9c2,.39,4,.89,5.93,1.48s3.87,1.28,5.75,2.06,3.73,1.65,5.52,2.61,3.55,2,5.24,3.14,3.34,2.35,4.91,3.64a60.69,60.69,0,0,1,4.53,4.1c1.44,1.45,2.81,2.95,4.1,4.53a60.62,60.62,0,0,1,3.65,4.91c1.13,1.69,2.17,3.44,3.14,5.24s1.83,3.64,2.61,5.52,1.46,3.8,2.06,5.75,1.08,3.92,1.48,5.92.7,4,.9,6,.29,4.06.29,6.1-.09,4.07-.29,6.1-.5,4-.9,6-.89,4-1.48,5.92-1.28,3.87-2.06,5.75-1.66,3.73-2.61,5.52-2,3.55-3.14,5.24a62.33,62.33,0,0,1-17.19,17.18Q405.66,676,403,677.4c-1.79,1-3.64,1.83-5.52,2.61s-3.8,1.47-5.75,2.06-3.93,1.09-5.93,1.48-4,.7-6.05.9S375.64,684.75,373.6,684.75Z" transform="translate(0 -0.03)"/></g><g class="cls-4"><path d="M902.86,342.38H867.31q-1.26-5-2.93-9.81t-3.73-9.52c-1.37-3.13-2.88-6.19-4.5-9.19s-3.38-5.93-5.25-8.79-3.86-5.63-6-8.32-4.3-5.29-6.62-7.8-4.73-4.92-7.24-7.23-5.12-4.51-7.81-6.61-5.48-4.07-8.34-5.94-5.79-3.61-8.79-5.23-6.07-3.12-9.2-4.49-6.3-2.61-9.53-3.72-6.5-2.08-9.81-2.92-6.65-1.53-10-2.09-6.75-1-10.15-1.27-6.82-.42-10.23-.42-6.82.14-10.23.42-6.78.71-10.15,1.27-6.71,1.26-10,2.09-6.58,1.82-9.81,2.92-6.41,2.35-9.54,3.72-6.19,2.86-9.19,4.49-5.94,3.37-8.8,5.23-5.63,3.85-8.33,5.94-5.3,4.3-7.81,6.61-4.93,4.72-7.24,7.23-4.53,5.11-6.63,7.8-4.08,5.47-6,8.32-3.62,5.79-5.24,8.79-3.13,6.06-4.51,9.19-2.62,6.29-3.73,9.52-2.09,6.5-2.93,9.81H31.14c-1,0-2,.05-3.06.15s-2,.25-3,.44-2,.45-3,.74-1.94.64-2.88,1-1.86.83-2.76,1.31-1.77,1-2.62,1.57a29.32,29.32,0,0,0-2.45,1.82c-.79.65-1.55,1.33-2.27,2.05a32,32,0,0,0-3.87,4.72,30.24,30.24,0,0,0-1.57,2.62c-.48.9-.92,1.82-1.31,2.76s-.73,1.9-1,2.87-.54,2-.74,3-.35,2-.45,3-.15,2-.15,3.05.05,2,.15,3.05a30.53,30.53,0,0,0,.45,3c.2,1,.45,2,.74,3s.64,1.93,1,2.87a31.6,31.6,0,0,0,2.88,5.38,29.32,29.32,0,0,0,1.82,2.45,27.62,27.62,0,0,0,2,2.27c.72.72,1.48,1.4,2.27,2.05a29.32,29.32,0,0,0,2.45,1.82A30.24,30.24,0,0,0,16.46,401c.9.48,1.82.91,2.76,1.31s1.9.73,2.88,1,2,.54,3,.74,2,.35,3,.44a28.38,28.38,0,0,0,3.06.16h596q1.26,5,2.93,9.8t3.73,9.53q2.07,4.68,4.51,9.19t5.24,8.78q2.81,4.29,6,8.32t6.63,7.8q3.46,3.76,7.24,7.23t7.81,6.61q4.05,3.14,8.33,5.94t8.8,5.23q4.5,2.44,9.19,4.49t9.54,3.72q4.85,1.67,9.81,2.92c3.31.84,6.65,1.53,10,2.1s6.75,1,10.15,1.26,6.82.42,10.23.42,6.82-.14,10.23-.42,6.78-.71,10.15-1.26,6.71-1.26,10-2.1,6.58-1.81,9.81-2.92,6.41-2.35,9.53-3.72,6.2-2.86,9.2-4.49,5.93-3.36,8.79-5.23,5.64-3.85,8.34-5.94,5.3-4.3,7.81-6.61,4.93-4.72,7.24-7.23,4.52-5.11,6.62-7.8,4.09-5.46,6-8.32,3.62-5.78,5.25-8.78,3.13-6.07,4.5-9.19,2.62-6.3,3.73-9.53,2.09-6.5,2.93-9.8h35.55a28.38,28.38,0,0,0,3.06-.16c1-.09,2-.25,3-.44s2-.45,3-.74,1.94-.64,2.88-1,1.86-.83,2.76-1.31a30.24,30.24,0,0,0,2.62-1.57,32,32,0,0,0,4.72-3.87,27.62,27.62,0,0,0,2-2.27,29.32,29.32,0,0,0,1.82-2.45,31.6,31.6,0,0,0,2.88-5.38c.39-.94.73-1.9,1-2.87s.54-2,.74-3a30.53,30.53,0,0,0,.45-3c.1-1,.15-2,.15-3.05s0-2-.15-3.05-.25-2-.45-3-.45-2-.74-3-.64-1.93-1-2.87-.83-1.86-1.31-2.76a30.24,30.24,0,0,0-1.57-2.62,31.31,31.31,0,0,0-8.59-8.59c-.85-.56-1.72-1.09-2.62-1.57s-1.82-.91-2.76-1.31-1.9-.73-2.88-1-2-.54-3-.74-2-.34-3-.44S903.89,342.38,902.86,342.38ZM747.2,435.75c-2,0-4.07-.1-6.11-.3s-4-.5-6-.9a60.25,60.25,0,0,1-5.92-1.48c-2-.59-3.87-1.28-5.76-2.06s-3.72-1.65-5.52-2.61-3.55-2-5.25-3.14-3.32-2.35-4.9-3.64a61.39,61.39,0,0,1-8.63-8.63,58.23,58.23,0,0,1-3.64-4.91,56.71,56.71,0,0,1-3.14-5.24,58.05,58.05,0,0,1-2.62-5.52q-1.17-2.82-2.06-5.75t-1.48-5.92q-.6-3-.9-6t-.3-6.1q0-3.06.3-6.1t.9-6q.6-3,1.48-5.92t2.06-5.75a59.23,59.23,0,0,1,2.62-5.52,56.71,56.71,0,0,1,3.14-5.24,58.23,58.23,0,0,1,3.64-4.91c1.29-1.58,2.66-3.08,4.1-4.53a60.69,60.69,0,0,1,4.53-4.1q2.37-1.94,4.9-3.64t5.25-3.14c1.8-1,3.63-1.83,5.52-2.61s3.8-1.47,5.76-2.06a60.25,60.25,0,0,1,5.92-1.48c2-.4,4-.7,6-.9s4.07-.3,6.11-.3,4.07.1,6.1.3,4.05.5,6.05.9,4,.89,5.93,1.48,3.86,1.28,5.75,2.06,3.72,1.65,5.52,2.61,3.55,2,5.24,3.14,3.34,2.35,4.91,3.64a60.69,60.69,0,0,1,4.53,4.1c1.44,1.45,2.81,2.95,4.1,4.53a58.23,58.23,0,0,1,3.64,4.91q1.69,2.54,3.14,5.24c1,1.79,1.83,3.64,2.61,5.52s1.47,3.8,2.07,5.75,1.08,3.92,1.48,5.92.69,4,.9,6,.29,4.06.29,6.1-.1,4.07-.29,6.1-.5,4-.9,6-.89,4-1.48,5.92-1.28,3.87-2.07,5.75a60.52,60.52,0,0,1-2.61,5.52q-1.44,2.7-3.14,5.24a58.23,58.23,0,0,1-3.64,4.91,62.18,62.18,0,0,1-13.54,12.27q-2.53,1.69-5.24,3.14c-1.79,1-3.64,1.83-5.52,2.61s-3.81,1.47-5.75,2.06-3.93,1.09-5.93,1.48-4,.7-6.05.9S749.24,435.75,747.2,435.75Z" transform="translate(0 -0.03)"/></g></g></g></svg>