<?xml version="1.0" encoding="utf-8"?>
<!-- Generator: Adobe Illustrator 24.3.0, SVG Export Plug-In . SVG Version: 6.00 Build 0)  -->
<svg version="1.1" id="Calque_1" xmlns="http://www.w3.org/2000/svg" xmlns:xlink="http://www.w3.org/1999/xlink" x="0px" y="0px"
	 viewBox="0 0 644.3 644.3" style="enable-background:new 0 0 644.3 644.3;" xml:space="preserve">
<style type="text/css">
	.st0{clip-path:url(#SVGID_2_);}
</style>
<g>
	<defs>
		<rect id="SVGID_1_" x="131.9" y="153.5" width="380.5" height="337.3"/>
	</defs>
	<clipPath id="SVGID_2_">
		<use xlink:href="#SVGID_1_"  style="overflow:visible;"/>
	</clipPath>
	<g class="st0">
		<path d="M481.2,317c-6.3,14.7-14.8,28.3-24.4,41.1c-13.8,17.7-29.7,33.5-46.7,48c-4.8,4.1-9.8,8.1-14.8,12
			c-18.6,14.4-38.2,27.5-58.4,39.5c-3.1,1.8-6.2,3.7-9.3,5.5c-2.5,1.5-5,3.1-7.7,4.4c-0.2,0.1-0.5,0.1-0.7,0.2
			c-0.1,0-0.2-0.1-0.3-0.1c-5.7-2.8-11.1-6.4-16.4-9.7c-6.1-3.8-12.1-7.8-18.1-11.8c-11.1-7.4-21.9-15.1-32.5-23.3
			c-18.4-14.4-35.8-30.2-51.4-47.7c-4-4.6-8-9.2-11.7-14c-10.1-13.3-18.9-27.7-25.5-43.1c-3.5-8.7-6.2-17.6-7.6-26.9
			c-0.1-0.7-0.2-1.5-0.2-2.2c0.1-0.7,0.2-1.4,0.1-2c0-0.3-0.1-0.7-0.1-1c-1-7.4-0.7-14.6,0.2-22c1.8-12.9,5-25.9,9.9-38
			c2.9-6.6,6.5-12.9,10.7-18.7c4.4-5.5,9.3-10.5,14.8-14.9c5.1-3.8,10.6-7,16.4-9.7c6.5-2.6,13.2-4.4,20.1-5.5
			c7.9-0.9,15.7-0.4,23.6,0.6c8,1.2,15.8,3.1,23.3,6.1c6.1,2.7,11.9,6.1,17.3,10.1c4.8,3.9,9.2,8.3,13.1,13.1
			c1.6,2.2,3.1,4.4,4.5,6.7c4.6,7.6,15,7.3,19.7,0c1.1-1.7,2.3-3.4,3.5-5.1c3.9-4.9,8.3-9.3,13.2-13.2c5.4-4,11.1-7.4,17.2-10.1
			c8.5-3.4,17.4-5.7,26.5-7c8.6-1.1,17.3-1.3,25.9-0.3c7,1.1,13.8,3.1,20.4,5.8c6.1,2.7,11.9,6.1,17.2,10.1
			c5.6,4.5,10.6,9.6,15,15.3c4.4,5.9,8,12.4,11,19.1c4.8,11.9,8,24.7,9.9,37.4c0.2,1.5,0.3,2.9,0.5,4.4c0.3,3.9,0.4,7.8,0.1,11.7
			c-0.2,0.9-0.3,1.8-0.4,2.7c0,0.3-0.1,0.5-0.1,0.8c0,0.2,0,0.5,0,0.7c0,0.6,0,1.2,0.1,1.8c0,0.1,0,0.3,0,0.4c0-0.1,0-0.3,0.1-0.4
			c0,0,0,0,0,0c-0.1,1.1-0.3,2.1-0.4,3.2C487.2,300.1,484.6,308.7,481.2,317z M489.3,285.2c-0.1,0.5-0.1,1-0.2,1.5c0,0,0,0,0,0
			C489.2,286.2,489.2,285.7,489.3,285.2z M511.9,285.9c0-0.2,0-0.4,0-0.7c0.7-5,0.7-10,0.3-15.1c-1.7-19.1-6.4-38.2-14.4-55.6
			c-7.5-16.2-19.2-30-33.4-40.6c-14.9-11.2-33.3-17.6-51.8-19.2c-10-0.9-20.1,0-30,1.5c-8.3,1.2-16.4,3.2-24.2,6.3
			c-10.4,4-19.7,9.3-28.4,16.2c-3.9,3.1-7.5,6.5-10.8,10.2c-8.8-10.2-19.6-18.5-31.8-24.2c-8.9-4.2-18.1-7.2-27.8-8.8
			c-10.1-1.7-20.7-3-31-2c-9.6,0.9-19,3-27.9,6.6c-4.8,2-9.5,4.1-13.9,6.8c-4.3,2.6-8.4,5.6-12.3,8.8c-14.8,11.9-25.3,28-32,45.6
			c-3.7,9.5-6.2,19.6-8.1,29.6c-2,10.8-3.4,21.8-2.3,32.7c0,0.2,0,0.4,0,0.6c0.1,0.4,0.1,0.8,0.2,1.2c-0.1,4.4,0.7,8.8,1.4,13.2
			c0.8,4.5,1.8,8.9,3.1,13.3c2.8,9.2,6.6,18.2,10.9,26.8c8,16.3,18.6,31.2,30.1,45.1c23.5,28.2,52,52,81.8,73
			c7.5,5.3,15.2,10.5,23,15.5c7.8,5.1,15.7,10.2,24,14.6c6,3.2,12.7,4.7,19.3,2.5c5.2-1.8,9.8-4.8,14.5-7.6
			c8.1-4.7,16.2-9.6,24.1-14.6c31.1-19.8,61.1-42.2,86.9-68.7c12.8-13.1,24.5-27.3,34.5-42.6c4.9-7.4,9.2-15.1,13-23.2
			c4.2-9.1,7.9-18.5,10.2-28.2c1.1-4.6,1.7-9.3,2.2-14.1C511.7,289.1,512,287.5,511.9,285.9"/>
	</g>
</g>
</svg>
